<svg xmlns="http://www.w3.org/2000/svg" version="1.1" xmlns:xlink="http://www.w3.org/1999/xlink" xmlns:svgjs="http://svgjs.dev/svgjs" width="2000" height="1308" viewBox="0 0 2000 1308"><g transform="matrix(1,0,0,1,-1.1016407839936164,1.4981268104625087)"><svg viewBox="0 0 379 248" data-background-color="#ffffff" preserveAspectRatio="xMidYMid meet" height="1308" width="2000" xmlns="http://www.w3.org/2000/svg" xmlns:xlink="http://www.w3.org/1999/xlink"><g id="tight-bounds" transform="matrix(1,0,0,1,0.20876092856678952,0.5843190247569225)"><svg viewBox="0 0 378.5824781428664 247.2" height="247.2" width="378.5824781428664"><g><svg viewBox="0 0 378.5824781428664 247.2" height="247.2" width="378.5824781428664"><g><svg viewBox="0 0 395.52 258.2595593954123" height="247.2" width="378.5824781428664"><g transform="matrix(1,0,0,1,0,169.59694019818363)"><svg viewBox="0 0 395.52 88.66261919722865" height="88.66261919722865" width="395.52"><g id="textblocktransform"><svg viewBox="0 0 395.52 88.66261919722865" height="88.66261919722865" width="395.52" id="textblock"><g><svg viewBox="0 0 395.52 88.66261919722865" height="88.66261919722865" width="395.52"><g transform="matrix(1,0,0,1,0,0)"><svg width="395.52" viewBox="-0.6583399999999999 -33.91756 201.17551 45.09695000000001" height="88.66261919722865" data-palette-color="#000000"><path d="M5.645 11.179l-6.303-32.168c0.222-0.044 0.728-0.149 1.517-0.318 0.788-0.175 1.672-0.358 2.654-0.55 0.981-0.192 1.961-0.391 2.94-0.597 0.979-0.205 1.785-0.37 2.42-0.494v0c3.866-0.758 6.887-0.456 9.063 0.904 2.17 1.368 3.55 3.557 4.14 6.566v0c0.286 1.459 0.296 2.846 0.031 4.162-0.271 1.323-0.817 2.524-1.638 3.602-0.827 1.086-1.928 2.018-3.304 2.798-1.376 0.779-3.045 1.361-5.008 1.745v0l-3.327 0.652 2.468 12.591zM5.777-18.102l2.225 11.354 3.66-0.718c1.995-0.391 3.319-1.194 3.971-2.408 0.647-1.207 0.812-2.618 0.495-4.234v0c-0.144-0.733-0.378-1.427-0.704-2.084-0.327-0.663-0.773-1.224-1.339-1.684-0.567-0.466-1.272-0.79-2.116-0.971-0.837-0.182-1.845-0.158-3.022 0.072v0c-0.693 0.136-1.302 0.255-1.826 0.358-0.523 0.103-0.972 0.207-1.344 0.315zM41.28-7.315l-1.658-11.693 5.466-0.774 1.745 12.317c0.272 1.921 0.619 3.511 1.04 4.771 0.421 1.26 0.833 2.269 1.237 3.026v0c0.485 0.908 0.975 1.602 1.467 2.085v0l-4.022 2.337c-0.433-0.302-0.847-0.701-1.24-1.197v0c-0.321-0.412-0.663-0.926-1.026-1.542-0.363-0.615-0.658-1.365-0.885-2.248v0c-0.597 2.01-1.621 3.526-3.072 4.546-1.451 1.02-3.025 1.651-4.721 1.892v0c-2.521 0.357-4.421-0.124-5.699-1.445-1.284-1.313-2.107-3.25-2.47-5.811v0l-2.256-15.911 5.466-0.774 2.242 15.822c0.19 1.34 0.58 2.359 1.171 3.056 0.59 0.697 1.46 0.965 2.608 0.801v0c0.7-0.099 1.368-0.396 2.005-0.89 0.629-0.5 1.169-1.156 1.62-1.967 0.457-0.812 0.78-1.764 0.969-2.854 0.19-1.084 0.194-2.266 0.013-3.547zM63.581-16.495c-0.578 0.053-1.142 0.251-1.692 0.596-0.551 0.345-1.03 0.787-1.436 1.326-0.406 0.539-0.72 1.174-0.941 1.903-0.227 0.737-0.302 1.537-0.223 2.401v0l1.204 13.215-5.497 0.501-1.107-12.15c-0.176-1.932-0.45-3.537-0.821-4.815-0.378-1.278-0.749-2.305-1.114-3.082v0c-0.437-0.897-0.89-1.616-1.361-2.155v0l4.183-2.139c0.318 0.332 0.663 0.74 1.035 1.221v0c0.3 0.428 0.604 0.936 0.912 1.524 0.315 0.587 0.59 1.292 0.825 2.114v0c0.474-1.924 1.284-3.354 2.431-4.289 1.147-0.928 2.491-1.462 4.031-1.602v0c0.744-0.068 1.446-0.041 2.106 0.079 0.653 0.115 0.966 0.173 0.94 0.175v0l-1.055 5.499c0.027-0.002-0.168-0.075-0.583-0.218-0.421-0.142-1.034-0.177-1.837-0.104zM85.454-20.127l-2.932 3.117c-0.516-0.519-1.035-0.958-1.555-1.316-0.521-0.358-1.2-0.514-2.039-0.468v0c-0.479 0.027-1.014 0.13-1.605 0.31-0.585 0.173-1.121 0.556-1.609 1.15-0.481 0.594-0.861 1.447-1.141 2.557-0.279 1.117-0.366 2.611-0.262 4.482v0c0.105 1.904 0.359 3.402 0.76 4.494 0.401 1.093 0.885 1.931 1.451 2.514 0.56 0.583 1.151 0.944 1.773 1.084 0.622 0.146 1.226 0.202 1.812 0.17v0c0.446-0.025 0.91-0.09 1.391-0.197 0.481-0.107 0.942-0.229 1.382-0.367 0.446-0.138 0.837-0.267 1.17-0.386 0.334-0.112 0.58-0.206 0.736-0.281v0l1.551 3.41c-0.098 0.032-0.313 0.141-0.643 0.326-0.331 0.179-0.781 0.364-1.352 0.555-0.57 0.192-1.254 0.383-2.051 0.575-0.797 0.191-1.695 0.314-2.694 0.369v0c-1.87 0.104-3.48-0.091-4.829-0.584-1.356-0.492-2.488-1.228-3.397-2.205-0.916-0.984-1.614-2.191-2.094-3.62-0.486-1.429-0.779-3.028-0.877-4.799v0c-0.118-2.13 0.06-4.033 0.535-5.708 0.475-1.675 1.181-3.097 2.118-4.264 0.937-1.167 2.065-2.077 3.384-2.731 1.326-0.654 2.761-1.024 4.305-1.11v0c1.518-0.084 2.815 0.135 3.892 0.656 1.077 0.521 2.017 1.277 2.82 2.267zM94.919-33.918l0.154 14.09c0.92-1.237 2.03-2.139 3.331-2.707 1.301-0.561 2.678-0.849 4.13-0.865v0c2.487-0.027 4.295 0.703 5.425 2.19 1.13 1.488 1.709 3.508 1.736 6.062v0l0.177 16.169-5.519 0.06-0.173-15.779c-0.015-1.36-0.27-2.431-0.765-3.212-0.489-0.788-1.316-1.176-2.483-1.163v0c-0.673 0.007-1.355 0.192-2.044 0.553-0.689 0.368-1.314 0.884-1.874 1.55-0.559 0.666-1.011 1.454-1.354 2.365-0.343 0.904-0.509 1.906-0.497 3.006v0l0.14 12.779-5.519 0.061-0.374-34.128zM135.75-20.85l-0.541 11.407c-0.092 1.938-0.049 3.565 0.129 4.881 0.184 1.317 0.401 2.385 0.649 3.205v0c0.307 0.982 0.658 1.756 1.051 2.322v0l-4.378 1.545c-0.4-0.439-0.766-0.957-1.098-1.554v0c-0.262-0.533-0.505-1.169-0.73-1.907-0.225-0.738-0.344-1.608-0.357-2.61v0c-0.645 1.912-1.593 3.328-2.845 4.25-1.259 0.928-2.92 1.343-4.984 1.245v0c-1.512-0.072-2.81-0.417-3.896-1.035-1.086-0.612-1.976-1.462-2.672-2.55-0.69-1.081-1.176-2.372-1.458-3.873-0.289-1.502-0.391-3.155-0.305-4.96v0c0.087-1.838 0.451-3.523 1.09-5.054 0.64-1.538 1.493-2.849 2.56-3.933 1.072-1.077 2.333-1.905 3.782-2.484 1.449-0.579 3.029-0.827 4.74-0.746v0c0.966 0.046 1.968 0.167 3.006 0.363 1.045 0.196 2.014 0.396 2.905 0.598 0.898 0.203 1.657 0.392 2.276 0.568 0.619 0.176 0.978 0.283 1.076 0.322zM123.748-1.888c0.806 0.038 1.561-0.203 2.267-0.723 0.705-0.514 1.328-1.202 1.87-2.064 0.541-0.862 0.976-1.859 1.303-2.991 0.327-1.132 0.519-2.295 0.576-3.487v0l0.33-6.962c-0.315-0.115-0.792-0.251-1.432-0.408-0.64-0.164-1.216-0.258-1.729-0.283v0c-1.225-0.058-2.244 0.104-3.056 0.486-0.812 0.382-1.476 0.934-1.991 1.658-0.521 0.716-0.903 1.586-1.145 2.608-0.242 1.023-0.392 2.147-0.45 3.373v0c-0.053 1.125-0.071 2.206-0.054 3.241 0.011 1.035 0.134 1.962 0.369 2.78 0.241 0.819 0.607 1.477 1.098 1.975 0.497 0.491 1.179 0.757 2.044 0.797zM149.975-21.195v0c0.936 0.09 1.842 0.274 2.72 0.552 0.884 0.279 1.665 0.581 2.344 0.908v0c0.809 0.365 1.553 0.745 2.232 1.138v0l-2.002 3.595c-0.616-0.347-1.232-0.664-1.848-0.95v0c-0.532-0.245-1.118-0.489-1.758-0.731-0.64-0.242-1.282-0.394-1.925-0.456v0c-0.737-0.071-1.388 0.048-1.953 0.355-0.565 0.301-0.881 0.806-0.949 1.517v0c-0.175 1.825 1.022 3.38 3.592 4.664v0c0.958 0.487 1.818 0.984 2.579 1.492 0.762 0.508 1.397 1.078 1.906 1.71 0.502 0.637 0.862 1.345 1.082 2.123 0.213 0.784 0.27 1.69 0.172 2.718v0c-0.086 0.903-0.353 1.768-0.801 2.596-0.455 0.834-1.076 1.554-1.865 2.162-0.788 0.601-1.722 1.054-2.802 1.359-1.08 0.298-2.28 0.384-3.601 0.258v0c-1.062-0.102-2.096-0.321-3.102-0.659-1.006-0.337-1.903-0.691-2.691-1.061-0.796-0.364-1.42-0.699-1.873-1.004v0l-0.694-0.408 2.17-3.88 0.595 0.398c0.393 0.299 0.898 0.625 1.513 0.979 0.616 0.347 1.281 0.675 1.995 0.985 0.72 0.317 1.385 0.504 1.996 0.562v0c1.122 0.107 1.976-0.038 2.563-0.437 0.594-0.399 0.926-0.966 0.997-1.703v0c0.08-0.836-0.145-1.628-0.676-2.375-0.525-0.747-1.362-1.403-2.514-1.969v0c-2.38-1.166-4.053-2.397-5.021-3.695-0.961-1.291-1.351-2.882-1.17-4.774v0c0.086-0.903 0.378-1.742 0.874-2.518 0.497-0.783 1.137-1.452 1.92-2.006 0.784-0.561 1.69-0.97 2.72-1.226 1.029-0.256 2.121-0.329 3.275-0.219zM159.998-6.817c0.303-2.145 0.867-3.991 1.691-5.538 0.824-1.547 1.833-2.798 3.025-3.754 1.192-0.956 2.53-1.612 4.015-1.968 1.485-0.362 3.043-0.428 4.673-0.198v0c1.439 0.203 2.639 0.551 3.6 1.044 0.954 0.492 1.708 1.086 2.263 1.784 0.555 0.698 0.925 1.484 1.11 2.359 0.186 0.875 0.212 1.791 0.077 2.747v0c-0.163 1.155-0.638 2.206-1.425 3.152-0.787 0.946-1.833 1.727-3.139 2.344-1.312 0.616-2.849 1.035-4.611 1.257-1.755 0.223-3.691 0.202-5.808-0.063v0c-0.004 0.747 0.049 1.461 0.161 2.144 0.118 0.69 0.34 1.31 0.667 1.861 0.333 0.552 0.799 1.015 1.399 1.39 0.593 0.38 1.371 0.638 2.335 0.774v0c0.7 0.099 1.46 0.125 2.281 0.08 0.822-0.052 1.585-0.14 2.289-0.263v0c0.835-0.145 1.658-0.325 2.47-0.539v0l0.954 3.609c-0.884 0.299-1.831 0.543-2.84 0.73v0c-0.872 0.166-1.865 0.285-2.979 0.356-1.121 0.071-2.289 0.02-3.503-0.151v0c-1.855-0.262-3.396-0.766-4.624-1.512-1.234-0.747-2.192-1.687-2.874-2.82-0.687-1.141-1.121-2.458-1.3-3.95-0.186-1.494-0.155-3.119 0.093-4.875zM172.449-14.602c-1.056-0.149-1.962-0.025-2.719 0.373-0.757 0.405-1.399 0.967-1.925 1.688-0.527 0.727-0.948 1.563-1.263 2.507-0.31 0.953-0.551 1.922-0.724 2.908v0c1.54 0.157 2.868 0.143 3.985-0.043 1.124-0.185 2.054-0.477 2.791-0.878 0.743-0.4 1.307-0.866 1.692-1.397 0.386-0.538 0.619-1.094 0.7-1.669v0c0.131-0.924-0.035-1.705-0.497-2.343-0.469-0.638-1.149-1.021-2.04-1.146zM193.485-14.878v0c0.924 0.174 1.81 0.438 2.659 0.794 0.855 0.357 1.606 0.729 2.253 1.115v0c0.773 0.437 1.479 0.882 2.12 1.335v0l-2.318 3.4c-0.583-0.401-1.168-0.772-1.754-1.113v0c-0.508-0.292-1.07-0.588-1.685-0.886-0.615-0.299-1.241-0.508-1.877-0.627v0c-0.727-0.137-1.386-0.077-1.977 0.178-0.589 0.249-0.95 0.724-1.081 1.424v0c-0.338 1.802 0.714 3.458 3.157 4.969v0c0.91 0.571 1.722 1.144 2.434 1.719 0.713 0.575 1.294 1.2 1.744 1.874 0.442 0.68 0.738 1.417 0.887 2.212 0.141 0.8 0.117 1.708-0.074 2.723v0c-0.167 0.891-0.511 1.729-1.032 2.513-0.528 0.789-1.212 1.451-2.052 1.985-0.838 0.528-1.81 0.895-2.913 1.101-1.103 0.2-2.306 0.177-3.61-0.068v0c-1.048-0.197-2.058-0.509-3.029-0.935-0.971-0.427-1.833-0.86-2.585-1.3-0.76-0.434-1.351-0.824-1.774-1.167v0l-0.655-0.469 2.511-3.67 0.556 0.451c0.365 0.333 0.838 0.703 1.419 1.111 0.583 0.401 1.215 0.788 1.899 1.16 0.688 0.38 1.334 0.627 1.936 0.74v0c1.107 0.208 1.971 0.14 2.593-0.204 0.628-0.343 1.01-0.879 1.146-1.606v0c0.155-0.826 0.002-1.634-0.46-2.427-0.455-0.791-1.231-1.52-2.326-2.187v0c-2.265-1.375-3.821-2.753-4.667-4.133-0.841-1.372-1.086-2.992-0.736-4.859v0c0.167-0.891 0.533-1.701 1.097-2.429 0.565-0.735 1.263-1.343 2.093-1.825 0.831-0.488 1.771-0.814 2.819-0.977 1.048-0.163 2.142-0.137 3.282 0.078z" opacity="1" transform="matrix(1,0,0,1,0,0)" fill="#000000" class="wordmark-text-0" data-fill-palette-color="primary" id="text-0"></path></svg></g></svg></g></svg></g></svg></g><g transform="matrix(1,0,0,1,126.00000608560809,0)"><svg viewBox="0 0 143.5199878287838 143.45611786111596" height="143.45611786111596" width="143.5199878287838"><g><svg xmlns="http://www.w3.org/2000/svg" viewBox="15.790788579524753 15.815849215095218 96.41126142047524 96.36835600888136" x="0" y="0" height="143.45611786111596" width="143.5199878287838" class="icon-icon-0" data-fill-palette-color="accent" id="icon-0"><g data-name="1" fill="#000000" data-fill-palette-color="accent"><path d="M109.277 15.816h-90.562A2.904 2.904 0 0 0 15.812 18.719V59.554a2.905 2.905 0 0 0 2.903 2.908h39.992l-8.994 11.315A1.468 1.468 0 0 0 50.858 76.161h5.096v34.549a1.476 1.476 0 0 0 1.474 1.474H70.563a1.476 1.476 0 0 0 1.474-1.474V76.161h5.092a1.51 1.51 0 0 0 1.323-0.826 1.494 1.494 0 0 0-0.174-1.558l-8.993-11.315h39.992a2.924 2.924 0 0 0 2.925-2.908V18.719A2.923 2.923 0 0 0 109.277 15.816Zm-0.697 2.903a0.703 0.703 0 0 1 0.697 0.693v9.149A11.517 11.517 0 0 1 99.586 18.719Zm-79.828 0a11.455 11.455 0 0 1-9.886 9.886V19.412a0.689 0.689 0 0 1 0.697-0.693ZM19.563 59.554a0.724 0.724 0 0 1-0.697-0.737V49.673a11.446 11.446 0 0 1 9.886 9.881ZM70.563 73.213a1.454 1.454 0 0 0-1.451 1.474V109.281H58.88V74.687a1.454 1.454 0 0 0-1.452-1.474H53.872L63.993 60.509 74.119 73.213ZM65.143 57.259a1.527 1.527 0 0 0-2.295 0l-1.824 2.295H31.677a14.329 14.329 0 0 0-12.962-12.829V31.552A14.334 14.334 0 0 0 31.677 18.719H96.661a14.398 14.398 0 0 0 12.616 12.789V46.725a14.426 14.426 0 0 0-12.616 12.829H66.963Zm34.443 2.295a11.564 11.564 0 0 1 9.691-9.881v9.144a0.74 0.74 0 0 1-0.697 0.737Zm-68.038 21.073a1.526 1.526 0 0 0-2.299 0L16.113 97.14a1.466 1.466 0 0 0 1.15 2.384H22.377v11.186a1.461 1.461 0 0 0 1.456 1.474H36.964a1.466 1.466 0 0 0 1.478-1.474V99.524h5.114a1.466 1.466 0 0 0 1.127-2.384Zm5.416 15.949a1.46 1.46 0 0 0-1.452 1.474V109.281H25.285V98.05A1.46 1.46 0 0 0 23.833 96.576H20.299L30.398 83.876 40.52 96.576Zm61.779-24.708a1.532 1.532 0 0 0-2.3 0L83.308 88.386a1.384 1.384 0 0 0-0.173 1.514 1.441 1.441 0 0 0 1.301 0.87h5.113v19.94a1.465 1.465 0 0 0 1.474 1.474h13.135a1.457 1.457 0 0 0 1.452-1.474V90.77h5.118a1.473 1.473 0 0 0 1.323-0.87 1.429 1.429 0 0 0-0.177-1.514Zm5.415 15.954a1.476 1.476 0 0 0-1.473 1.474V109.281H92.475V89.296a1.454 1.454 0 0 0-1.452-1.474H87.467L97.593 75.118 107.714 87.822ZM59.683 33.807c0 2.513 1.514 3.858 4.377 3.858 5.398 0 7.307 3.511 7.307 6.761a6.893 6.893 0 0 1-5.833 6.632v1.607a1.463 1.463 0 1 1-2.926 0V51.058a6.873 6.873 0 0 1-5.833-6.632 1.454 1.454 0 0 1 2.908 0 4.412 4.412 0 0 0 8.754 0c0-2.557-1.474-3.858-4.377-3.858-5.376 0-7.285-3.467-7.285-6.76a6.941 6.941 0 0 1 5.833-6.632V25.613a1.463 1.463 0 1 1 2.926 0v1.562a6.963 6.963 0 0 1 5.833 6.632 1.461 1.461 0 0 1-1.456 1.474A1.479 1.479 0 0 1 68.437 33.807a4.418 4.418 0 0 0-8.754 0Zm37.235 6.761V37.665a5.852 5.852 0 0 0-5.828-5.855H88.164a5.867 5.867 0 0 0-5.833 5.855v2.903a5.835 5.835 0 0 0 5.833 5.851h2.926A5.82 5.82 0 0 0 96.918 40.568Zm-2.903 0a2.933 2.933 0 0 1-2.925 2.948H88.164a2.915 2.915 0 0 1-2.907-2.948V37.665a2.902 2.902 0 0 1 2.907-2.903h2.926a2.92 2.92 0 0 1 2.925 2.903ZM39.956 31.81H37.053a5.868 5.868 0 0 0-5.851 5.855v2.903A5.836 5.836 0 0 0 37.053 46.419h2.903A5.84 5.84 0 0 0 45.811 40.568V37.665A5.872 5.872 0 0 0 39.956 31.81Zm2.93 8.758a2.92 2.92 0 0 1-2.93 2.948H37.053a2.919 2.919 0 0 1-2.926-2.948V37.665a2.906 2.906 0 0 1 2.926-2.903h2.903a2.907 2.907 0 0 1 2.93 2.903Z" fill="#000000" data-fill-palette-color="accent"></path></g></svg></g></svg></g><g></g></svg></g></svg></g><defs></defs></svg><rect width="378.5824781428664" height="247.2" fill="none" stroke="none" visibility="hidden"></rect></g></svg></g></svg>