<svg width="18" height="21" viewBox="0 0 18 21" fill="none" xmlns="http://www.w3.org/2000/svg">
<path d="M5.41133 0.0905693C2.77332 0.210479 0.574983 2.44879 0.495044 5.08679C0.455074 6.64562 1.05462 8.04456 2.09384 9.00383C2.65341 9.52344 3.53275 9.24365 3.7326 8.5242C3.81254 8.16447 3.7326 7.80474 3.49278 7.56492C2.85326 7.00534 2.49353 6.16598 2.49353 5.24667C2.5335 3.60791 3.85251 2.20897 5.49127 2.08906C6.97015 2.00912 8.24918 2.92843 8.68885 4.20746C8.80876 4.52722 9.08855 4.76704 9.40831 4.84698H9.48825C10.2077 4.96689 10.8073 4.24743 10.5674 3.52797C9.84798 1.44954 7.80952 -0.0293401 5.41133 0.0905693Z" fill="#407BFF"/>
<path d="M16.6828 10.4827L6.21073 4.36735C5.851 4.12753 5.41133 4.20747 5.09157 4.40732C4.77181 4.60717 4.57197 5.00686 4.6519 5.40656L6.29067 17.4375C6.41058 18.2369 7.28991 18.5966 7.88946 18.1569C7.9694 18.117 8.00937 18.077 8.08931 17.997L10.9671 14.9593L14.0848 19.6358C14.4045 20.0755 15.0041 20.2354 15.4837 19.9156C15.9234 19.5958 16.0833 18.9963 15.7635 18.5167L12.6459 13.8802L16.5229 12.3613C16.6029 12.3213 16.6828 12.2814 16.7228 12.2414C17.3623 11.8417 17.3623 10.8824 16.6828 10.4827ZM13.6051 11.3621L11.207 12.2814C11.0071 12.3613 10.8073 12.4812 10.6074 12.6011C10.4076 12.721 10.2477 12.8809 10.0878 13.0408L8.28916 14.9194C8.16925 15.0393 7.9694 14.9593 7.92943 14.7995L6.93018 7.48499C6.89021 7.32511 7.09006 7.2052 7.24994 7.28514L13.6051 11.0023C13.765 11.0823 13.765 11.3221 13.6051 11.3621Z" fill="#111111"/>
</svg>
