<svg width="21" height="21" viewBox="0 0 21 21" fill="none" xmlns="http://www.w3.org/2000/svg">
<path d="M17.8042 3.68374H11.1642C10.5242 3.68374 10.0842 4.24374 10.1642 4.84374C10.2442 5.32374 10.6442 5.68374 11.1642 5.68374H17.7642C18.0042 5.68374 18.1242 5.80374 18.2042 5.88374C18.2842 5.96374 18.3642 6.12374 18.3242 6.36374L16.8042 13.6437C16.7642 13.9237 16.5242 14.1237 16.2442 14.1237H9.80418C9.52417 14.1237 9.28417 13.9237 9.24417 13.6437L7.04417 0.88374C6.96417 0.40374 6.56417 0.0837402 6.08417 0.0837402H1.48417C0.844174 0.0837402 0.364174 0.68374 0.524174 1.32374C0.604174 1.80374 1.08417 2.08374 1.52417 2.08374H5.24417L7.28417 13.9637C7.48417 15.2037 8.56418 16.0837 9.80418 16.0837H16.2842C17.5242 16.0837 18.6042 15.2037 18.8042 13.9637L20.3242 6.68374C20.6042 5.12374 19.3642 3.68374 17.8042 3.68374Z" fill="#111111"/>
<path d="M15.0442 9.28374C15.6042 9.28374 16.0442 8.84374 16.0442 8.28374C16.0442 7.72374 15.6042 7.28374 15.0442 7.28374H11.8442C11.2842 7.28374 10.8442 7.72374 10.8442 8.28374C10.8442 8.84374 11.2842 9.28374 11.8442 9.28374H15.0442Z" fill="#111111"/>
<circle cx="10.2442" cy="18.6838" r="1.4" fill="#407BFF"/>
<circle cx="15.8443" cy="18.6838" r="1.4" fill="#407BFF"/>
<path d="M15.2441 11.4838C15.2441 10.9238 14.8041 10.4838 14.2441 10.4838H12.2441C11.6841 10.4838 11.2441 10.9238 11.2441 11.4838C11.2441 12.0438 11.6841 12.4838 12.2441 12.4838H14.2441C14.8041 12.4838 15.2441 12.0438 15.2441 11.4838Z" fill="#407BFF"/>
</svg>
