<svg width="20" height="21" viewBox="0 0 20 21" fill="none" xmlns="http://www.w3.org/2000/svg">
<path d="M19.2237 16.9237L18.7037 14.4837C18.4237 13.2037 17.6637 12.0837 16.5037 11.3637L13.4237 9.44374C13.9037 8.84374 14.1837 8.08374 14.2637 7.24374L14.5037 4.96374C14.8637 2.36374 12.7837 0.0837402 10.1437 0.0837402H9.66372C7.02372 0.0837402 4.94372 2.36374 5.22372 5.00374L5.46372 7.28374C5.54372 8.08374 5.86372 8.84374 6.30372 9.48374L3.22372 11.4037C2.14372 12.0837 1.34372 13.2037 1.06372 14.4837L0.543724 16.9237C0.223724 18.5637 1.46372 20.0837 3.10372 20.0837H16.6637C18.3437 20.0837 19.5837 18.5637 19.2237 16.9237ZM7.82372 2.88374C8.30372 2.36374 8.94372 2.08374 9.66372 2.08374H10.1437C10.8637 2.08374 11.5037 2.36374 11.9837 2.88374C12.4637 3.40374 12.6637 4.08374 12.5837 4.76374L12.3437 7.04374C12.2237 8.28374 11.1437 9.24374 9.90372 9.24374C8.66372 9.24374 7.58372 8.28374 7.46372 7.04374L7.22372 4.76374C7.14372 4.08374 7.34373 3.40374 7.82372 2.88374ZM17.1437 17.8437C17.0637 17.9237 16.9437 18.0837 16.6637 18.0837H3.10372C2.86372 18.0837 2.70372 17.9237 2.62372 17.8437C2.54372 17.7637 2.46372 17.5637 2.50372 17.3237L3.02372 14.8837C3.18372 14.1237 3.66372 13.4837 4.30372 13.0837L7.94373 10.8037C8.54373 11.0837 9.18373 11.2437 9.86372 11.2437C10.5437 11.2437 11.2237 11.0837 11.7837 10.8037L15.4237 13.0837C16.0637 13.4837 16.5437 14.1637 16.7037 14.8837L17.2237 17.3237C17.3437 17.6037 17.2237 17.7637 17.1437 17.8437Z" fill="#111111"/>
<path d="M13.7036 16.4838H11.7036C11.1436 16.4838 10.7036 16.0438 10.7036 15.4838C10.7036 14.9238 11.1436 14.4838 11.7036 14.4838H13.7036C14.2636 14.4838 14.7036 14.9238 14.7036 15.4838C14.7036 16.0438 14.2636 16.4838 13.7036 16.4838Z" fill="#407BFF"/>
</svg>
